<svg width="32" height="32" viewBox="0 0 32 32" fill="none" xmlns="http://www.w3.org/2000/svg">
  <!-- Head (Yellow) -->
  <path d="M10 8C10 4.68629 12.6863 2 16 2C19.3137 2 22 4.68629 22 8C22 11.3137 19.3137 14 16 14C12.6863 14 10 11.3137 10 8Z" fill="#FFD700"/>
  <!-- Hair (Blue) -->
  <path d="M10 8C10 5.79086 11.7909 4 14 4C15 2 17 2 18 4C20.2091 4 22 5.79086 22 8C22 9 21 10 20 10C18.5 10 18 9 18 8C18 7 18.5 6 20 6C21 6 22 7 22 8C22 11.3137 19.3137 14 16 14C12.6863 14 10 11.3137 10 8Z" fill="#004AAD"/>
  <!-- Neck and Shirt (Red) -->
  <rect x="12" y="14" width="8" height="4" fill="#FFD700"/>
  <rect x="10" y="18" width="12" height="4" fill="#E30022"/>
</svg>