<?xml version="1.0" standalone="no"?>
<!DOCTYPE svg PUBLIC "-//W3C//DTD SVG 20010904//EN"
 "http://www.w3.org/TR/2001/REC-SVG-20010904/DTD/svg10.dtd">
<svg version="1.0" xmlns="http://www.w3.org/2000/svg"
 width="900.000000pt" height="675.000000pt" viewBox="0 0 900.000000 675.000000"
 preserveAspectRatio="xMidYMid meet">
<metadata>
Created by potrace 1.10, written by Peter Selinger 2001-2011
</metadata>
<g transform="translate(0.000000,675.000000) scale(0.100000,-0.100000)"
fill="#000000" stroke="none">
<path d="M4040 6664 c-25 -7 -63 -14 -85 -14 -22 0 -51 -7 -65 -15 -14 -8 -39
-14 -56 -15 -16 0 -39 -7 -50 -15 -10 -8 -29 -15 -41 -15 -12 0 -34 -6 -50
-14 -15 -7 -44 -20 -63 -29 -63 -27 -184 -88 -215 -108 -16 -10 -37 -22 -45
-26 -53 -25 -178 -121 -256 -198 -84 -83 -214 -242 -214 -263 0 -16 -46 -52
-68 -52 -19 0 -74 -20 -112 -41 -8 -4 -33 -18 -54 -29 -100 -54 -256 -202
-327 -310 -37 -55 -85 -145 -112 -210 -8 -19 -22 -52 -31 -73 -9 -21 -16 -48
-16 -61 0 -13 -7 -41 -17 -62 -13 -32 -16 -75 -16 -244 0 -142 3 -214 12 -235
7 -16 16 -50 21 -75 10 -58 24 -98 75 -215 26 -59 57 -120 76 -150 10 -16 23
-39 29 -50 6 -11 19 -33 30 -50 10 -16 25 -40 32 -52 7 -12 35 -55 63 -95 27
-40 55 -82 61 -93 28 -46 54 -102 54 -113 0 -6 6 -26 14 -44 29 -69 46 -201
46 -356 0 -133 3 -158 20 -190 33 -62 54 -80 130 -110 15 -5 35 -28 49 -56 12
-26 42 -66 64 -90 45 -45 145 -116 164 -116 23 0 31 -35 26 -105 -6 -78 -25
-104 -77 -105 -44 0 -113 -62 -142 -127 -13 -31 -24 -62 -24 -70 0 -19 -57
-104 -81 -121 -10 -7 -25 -19 -33 -27 -8 -8 -18 -15 -21 -15 -11 0 -88 -61
-112 -89 -12 -14 -22 -32 -23 -40 0 -22 -40 -81 -55 -81 -7 0 -26 -6 -42 -14
-15 -8 -75 -38 -133 -66 -58 -28 -114 -56 -125 -62 -11 -6 -27 -15 -35 -20 -8
-4 -24 -13 -35 -18 -11 -6 -33 -19 -50 -30 -16 -11 -39 -24 -50 -29 -11 -5
-37 -21 -58 -35 -21 -14 -40 -26 -44 -26 -6 0 -82 -59 -98 -75 -5 -6 -32 -29
-60 -51 -64 -50 -209 -195 -259 -259 -22 -27 -45 -54 -51 -60 -22 -20 -105
-134 -105 -143 0 -6 -3 -12 -7 -14 -12 -5 -53 -66 -53 -78 0 -5 -4 -10 -9 -10
-5 0 -13 -9 -16 -21 -4 -11 -27 -49 -51 -85 -24 -35 -44 -71 -44 -79 0 -7 -5
-17 -11 -20 -5 -4 -14 -17 -20 -28 -5 -12 -13 -30 -19 -40 -24 -42 -126 -247
-148 -297 -8 -19 -19 -42 -24 -50 -4 -8 -11 -22 -14 -30 -3 -8 -12 -28 -20
-43 -7 -16 -14 -35 -14 -42 0 -13 -6 -28 -44 -103 -9 -19 -16 -41 -16 -51 0
-9 -6 -25 -13 -36 -8 -11 -17 -35 -20 -52 l-6 -33 2899 0 c1728 0 2900 4 2900
9 0 5 -13 39 -30 76 -16 37 -30 71 -30 75 0 5 -13 37 -29 72 -67 149 -74 174
-59 218 l13 41 19 -38 c10 -21 22 -45 27 -53 19 -35 48 -97 54 -117 3 -13 11
-23 16 -23 5 0 9 -9 9 -19 0 -11 7 -26 15 -35 8 -8 15 -23 15 -34 0 -11 7 -25
15 -32 8 -7 15 -21 15 -31 0 -11 9 -28 20 -39 11 -11 20 -31 20 -45 0 -16 6
-25 15 -25 9 0 15 9 15 24 0 13 -7 29 -15 36 -8 7 -15 23 -15 35 0 12 -7 28
-15 35 -8 7 -15 23 -15 35 0 12 -7 28 -15 35 -8 7 -15 20 -15 29 0 10 -7 26
-15 37 -8 10 -15 26 -15 35 0 9 -7 22 -15 29 -8 7 -15 21 -15 31 0 9 -7 24
-15 33 -8 8 -15 19 -15 25 0 12 -67 142 -81 156 -14 14 -11 53 8 81 16 26 16
27 -17 55 -18 16 -36 29 -41 29 -15 0 -79 62 -79 77 0 13 -15 48 -41 93 -5 8
-12 22 -15 30 -3 8 -10 22 -15 30 -5 8 -11 21 -14 28 -13 32 -16 39 -35 67
-11 17 -24 39 -30 50 -18 35 -93 146 -115 171 -5 6 -35 42 -65 80 -54 67 -164
181 -228 237 -65 55 -200 157 -210 157 -6 0 -12 3 -14 8 -5 11 -66 52 -78 52
-5 0 -10 4 -10 10 0 5 -11 12 -25 16 -14 3 -25 10 -25 14 0 4 -12 13 -27 19
-16 6 -41 20 -58 31 -16 11 -37 23 -45 26 -30 12 -36 15 -74 37 -23 13 -48 39
-60 63 -12 23 -30 49 -39 58 -9 9 -22 25 -29 35 -17 24 -129 101 -191 130 -37
18 -47 27 -41 40 4 9 9 34 12 56 2 22 11 49 18 60 8 11 14 29 14 41 0 12 7 27
15 34 8 7 15 19 15 27 0 7 7 16 15 19 8 4 15 10 15 15 0 11 16 31 43 57 16 15
96 33 214 49 23 3 47 11 54 19 6 8 17 14 24 14 18 0 85 71 85 91 0 10 5 21 10
24 13 8 13 48 -1 62 -6 6 -8 16 -5 21 10 16 96 42 140 42 23 1 52 7 66 15 14
8 39 15 55 15 17 0 39 7 49 15 11 8 30 15 42 15 12 0 27 7 34 15 7 8 19 15 27
15 21 0 107 69 131 106 11 17 28 54 38 82 18 50 18 53 0 109 -16 51 -37 101
-65 153 -38 73 -41 85 -41 181 0 67 5 112 15 136 10 23 15 63 14 107 -1 49 2
72 12 80 21 16 79 92 79 104 0 5 7 15 15 22 8 7 15 23 15 37 0 13 7 35 16 48
13 19 15 48 12 151 -2 91 -7 129 -15 132 -7 2 -13 16 -13 32 0 15 -7 33 -15
40 -8 7 -15 18 -15 24 0 7 -23 37 -50 68 l-50 57 6 54 c5 40 2 62 -9 83 -8 16
-18 36 -21 44 -4 8 -15 29 -26 45 -11 17 -23 37 -27 45 -7 18 -58 84 -91 119
-12 13 -27 41 -32 62 -6 21 -15 41 -20 44 -6 3 -10 17 -10 31 0 14 -5 35 -12
47 -6 12 -15 38 -19 57 -8 38 -26 94 -40 122 -5 10 -9 22 -9 27 0 17 113 34
231 35 121 1 149 10 149 47 0 9 -6 24 -13 31 -7 7 -16 21 -20 31 -3 9 -11 17
-17 17 -5 0 -10 7 -10 15 0 19 17 19 50 0 14 -8 48 -14 77 -15 67 0 84 22 53
72 -11 18 -24 42 -29 53 -5 11 -17 29 -28 40 -10 11 -36 43 -58 70 -61 77
-148 169 -246 261 -58 53 -205 164 -218 164 -6 0 -11 5 -11 10 0 6 -10 15 -22
20 -13 6 -36 19 -53 30 -16 11 -39 24 -50 30 -42 23 -67 38 -78 49 -6 6 -19
11 -28 11 -9 0 -22 7 -29 15 -7 8 -20 15 -30 15 -10 0 -23 7 -30 15 -7 8 -23
15 -35 15 -12 0 -28 7 -35 15 -7 8 -22 15 -34 15 -11 0 -30 7 -40 15 -11 8
-29 15 -40 15 -12 0 -30 7 -40 15 -11 8 -31 15 -45 15 -14 1 -37 7 -51 15 -14
8 -38 15 -55 15 -16 0 -41 7 -55 15 -14 8 -44 14 -66 15 -23 0 -61 7 -84 15
-59 21 -513 21 -580 -1z m559 -34 c9 -5 46 -12 81 -16 36 -3 70 -10 75 -14 6
-5 31 -11 58 -15 26 -4 49 -11 52 -15 3 -5 23 -11 46 -15 22 -4 53 -13 67 -21
15 -8 37 -14 50 -14 12 0 22 -4 22 -9 0 -5 14 -13 32 -16 18 -4 39 -11 48 -16
8 -4 65 -32 125 -61 61 -29 112 -56 115 -59 3 -4 15 -9 28 -13 12 -4 22 -12
22 -17 0 -5 6 -9 13 -9 12 0 26 -9 74 -50 7 -5 15 -10 19 -10 6 0 42 -28 129
-100 17 -13 71 -65 120 -115 81 -80 119 -121 205 -221 32 -37 100 -137 100
-147 0 -13 -37 -7 -50 8 -7 8 -21 15 -31 15 -10 0 -22 6 -26 13 -9 13 -94 57
-112 57 -6 0 -11 7 -11 15 0 10 -11 15 -32 16 -18 1 -26 3 -17 6 25 6 32 70
11 92 -9 9 -38 40 -63 67 -25 27 -67 67 -94 89 -27 22 -56 48 -64 58 -9 9 -20
17 -26 17 -6 0 -23 12 -40 28 -28 26 -47 39 -90 62 -11 6 -33 19 -50 30 -28
19 -35 22 -67 35 -7 3 -20 9 -28 13 -42 24 -59 33 -100 52 -25 12 -58 28 -73
35 -16 8 -39 15 -52 15 -12 0 -28 7 -35 15 -7 8 -18 15 -26 15 -14 0 -66 20
-117 46 -16 8 -38 14 -50 14 -12 0 -33 6 -48 13 -14 8 -49 17 -78 20 -29 3
-58 10 -65 16 -6 5 -29 11 -51 13 -22 3 -60 10 -85 16 -25 6 -97 16 -160 22
-234 22 -253 25 -257 37 -3 9 21 13 84 16 129 6 403 -2 422 -13z m-604 -30
c16 -7 11 -9 -20 -9 -29 -1 -36 2 -25 9 17 11 19 11 45 0z m485 -665 c30 -8
89 -15 131 -15 50 0 82 -5 95 -15 11 -8 42 -14 75 -15 38 0 61 -5 69 -15 8
-10 30 -15 61 -15 31 0 51 -5 56 -14 5 -8 27 -16 52 -18 48 -3 67 -24 29 -31
-13 -2 3 -2 34 1 31 2 65 1 75 -3 16 -6 14 -9 -12 -22 -29 -13 -28 -13 28 -8
46 5 58 4 63 -9 4 -11 19 -16 44 -16 44 0 59 -14 33 -29 -13 -8 -6 -9 29 -4
39 4 49 3 54 -11 3 -9 15 -16 26 -16 23 0 47 -26 48 -52 0 -10 6 -18 13 -18 7
0 17 -8 22 -18 40 -75 94 -197 110 -247 10 -33 24 -74 32 -92 7 -17 13 -40 13
-51 0 -11 8 -35 17 -54 9 -18 23 -46 31 -63 9 -16 18 -32 22 -35 3 -3 24 -27
45 -55 22 -27 46 -54 53 -58 6 -4 12 -14 12 -21 0 -8 7 -19 15 -26 8 -7 15
-22 15 -34 0 -11 7 -30 15 -40 8 -11 15 -35 15 -53 0 -40 -21 -43 -77 -13 -21
11 -48 20 -60 20 -12 0 -25 5 -28 10 -8 12 -232 14 -239 1 -3 -4 -24 -11 -46
-15 -57 -9 -155 -63 -198 -108 -29 -32 -41 -22 -44 40 -7 134 -36 4 -40 -178
-2 -94 13 -212 28 -235 8 -11 14 -29 14 -41 0 -12 7 -27 15 -34 8 -7 15 -21
15 -31 0 -11 4 -19 9 -19 5 0 13 -10 17 -22 9 -32 34 -58 55 -58 33 0 29 18
-11 61 -22 24 -40 48 -40 55 0 6 -7 17 -15 24 -8 7 -15 21 -15 30 0 10 -6 31
-14 47 -23 44 -40 206 -26 247 14 42 106 124 170 152 8 3 29 12 45 19 39 17
110 33 177 41 59 7 171 -19 247 -56 51 -25 151 -116 151 -137 0 -7 7 -16 15
-19 8 -4 15 -16 15 -28 0 -12 7 -31 15 -42 11 -14 14 -50 15 -146 0 -125 -2
-137 -42 -208 -4 -8 -12 -24 -17 -35 -23 -48 -125 -135 -160 -135 -11 0 -42
21 -68 46 -73 70 -78 74 -100 74 -11 0 -26 7 -33 15 -9 11 -33 15 -88 15 -97
0 -85 -18 16 -27 42 -3 77 -12 83 -19 6 -8 18 -14 26 -14 18 0 113 -95 113
-113 0 -7 6 -22 14 -33 17 -22 11 -103 -11 -143 -7 -15 -13 -31 -13 -37 0 -5
-14 -24 -31 -41 -89 -92 -295 -122 -568 -83 -69 10 -85 9 -92 -2 -11 -16 16
-38 46 -38 12 0 36 -7 54 -16 26 -13 64 -15 225 -12 124 2 198 7 207 14 8 7
29 15 47 19 17 3 32 10 32 13 0 4 18 18 40 31 75 47 112 127 109 235 -2 66 -1
72 21 83 13 6 28 10 32 7 15 -9 8 -104 -9 -137 -23 -45 -23 -240 1 -266 9 -10
16 -27 16 -39 0 -11 4 -23 9 -27 11 -6 44 -75 60 -126 13 -43 14 -96 2 -104
-5 -3 -13 -20 -16 -38 -8 -36 -97 -127 -125 -127 -10 0 -23 -7 -30 -15 -7 -8
-23 -15 -36 -15 -12 0 -29 -7 -38 -15 -8 -8 -30 -15 -48 -15 -19 0 -43 -7 -54
-15 -12 -9 -42 -14 -80 -15 -33 0 -83 -7 -110 -15 -59 -18 -443 -21 -521 -5
-26 6 -93 15 -148 20 -115 11 -254 33 -305 49 -19 6 -49 11 -67 11 -17 0 -34
4 -37 9 -4 5 -25 12 -49 16 -23 4 -51 13 -62 19 -11 7 -33 15 -50 18 -36 7
-90 26 -127 44 -14 8 -37 14 -50 14 -12 0 -32 7 -42 15 -11 8 -29 15 -41 15
-11 0 -29 6 -40 14 -22 14 -64 25 -138 33 -58 6 -57 19 4 50 56 30 60 43 15
43 -20 0 -36 -4 -36 -9 0 -5 -11 -12 -24 -15 -39 -10 -96 -86 -96 -128 0 -39
19 -62 47 -56 12 3 17 11 16 26 -3 21 1 22 71 22 53 0 77 -4 86 -15 7 -8 27
-15 45 -15 18 0 38 -7 45 -15 7 -8 25 -15 40 -15 15 0 33 -7 40 -15 7 -8 22
-15 34 -15 11 0 30 -7 40 -15 11 -8 30 -15 42 -15 12 0 35 -7 50 -15 16 -8 38
-15 49 -15 11 -1 31 -7 45 -15 14 -8 43 -14 65 -15 23 0 46 -5 52 -11 6 -6 42
-14 80 -16 37 -3 73 -10 80 -15 7 -6 50 -12 95 -14 46 -3 108 -12 139 -20 42
-11 127 -15 330 -16 205 -1 277 -5 286 -14 15 -15 17 -60 3 -69 -5 -3 -10 -14
-10 -23 0 -10 -10 -26 -22 -37 -55 -48 -90 -57 -293 -74 -120 -10 -141 -15
-149 -37 -3 -8 -12 -14 -19 -14 -8 0 -22 -9 -32 -20 -18 -20 -17 -20 18 -20
26 0 37 4 37 15 0 18 37 38 57 31 14 -6 13 -10 -6 -29 -11 -13 -21 -29 -21
-35 0 -7 -4 -12 -10 -12 -5 0 -10 -8 -10 -19 0 -10 -7 -24 -15 -31 -8 -7 -15
-20 -15 -29 0 -9 -7 -29 -15 -45 -8 -15 -15 -40 -15 -55 0 -14 -7 -39 -16 -56
-25 -45 -26 -260 -1 -298 22 -35 23 -34 -18 -51 -76 -32 -297 -54 -436 -44
-137 10 -266 25 -278 33 -6 3 -38 10 -72 16 -33 5 -68 13 -77 18 -16 8 -42 15
-147 42 -22 6 -44 14 -49 20 -6 5 -18 9 -27 9 -21 0 -87 28 -214 91 -103 51
-110 55 -183 102 -24 15 -45 27 -47 27 -6 0 -108 62 -115 70 -3 3 -25 18 -48
33 l-44 28 7 52 c4 29 12 60 17 70 5 10 12 50 15 90 3 40 10 78 16 85 6 7 12
129 16 295 l6 282 34 17 c33 17 81 56 81 67 0 3 -4 12 -9 20 -7 11 -13 11 -32
1 -13 -7 -27 -18 -31 -24 -5 -7 -45 -11 -105 -11 -77 0 -103 4 -123 18 -13 9
-30 17 -38 17 -15 0 -27 9 -89 70 -25 25 -50 57 -55 73 -6 15 -14 27 -19 27
-5 0 -9 13 -9 28 0 16 -7 37 -15 48 -20 27 -20 201 0 228 8 11 15 29 15 41 0
28 64 92 101 100 16 4 31 11 34 16 9 14 68 10 89 -6 11 -8 30 -15 43 -15 24 0
73 -64 73 -96 0 -9 6 -28 14 -42 7 -15 23 -47 35 -72 12 -25 27 -54 34 -64 18
-30 80 -86 95 -86 6 0 12 -4 12 -9 0 -19 41 -18 77 1 47 25 46 24 62 99 12 51
12 83 2 188 -14 139 -11 428 7 662 11 131 15 152 42 202 16 31 30 65 30 75 0
10 5 23 10 28 6 6 15 35 21 65 5 30 14 74 19 99 15 76 12 341 -5 370 -8 14
-14 41 -15 61 0 19 -7 44 -15 55 -8 10 -15 27 -15 36 0 20 -38 95 -51 104 -15
9 -10 31 9 38 23 9 61 31 75 45 6 6 19 11 28 11 9 0 19 7 23 15 3 8 16 15 30
15 13 0 26 7 30 15 3 8 16 15 30 15 13 0 26 7 30 15 3 9 18 15 39 15 19 0 40
7 47 15 7 8 29 15 50 15 21 0 43 7 50 15 8 10 31 15 64 15 28 1 65 7 81 15 43
20 331 20 405 0z m1101 -46 c9 -6 1 -9 -25 -9 -39 0 -39 0 -21 20 13 14 21 17
26 9 3 -6 13 -15 20 -20z m207 -1 c12 -2 13 -6 5 -11 -6 -4 -19 0 -27 9 -9 8
-13 21 -9 27 5 8 9 7 11 -5 2 -9 11 -18 20 -20z m-18 -158 c0 -5 -9 -10 -20
-10 -11 0 -20 5 -20 10 0 6 9 10 20 10 11 0 20 -4 20 -10z m-2318 -112 c62
-124 79 -251 58 -448 -14 -138 -18 -160 -29 -160 -4 0 -11 97 -14 215 -3 120
-10 221 -15 228 -6 7 -13 30 -17 52 -6 35 -19 71 -46 127 -16 31 -11 50 13 46
14 -2 30 -21 50 -60z m2416 10 c7 -7 12 -16 12 -20 0 -15 -15 -8 -28 12 -13
22 -3 27 16 8z m-2480 -1758 c0 -77 -2 -87 -9 -55 -4 22 -8 83 -7 135 0 77 2
87 9 55 4 -22 8 -83 7 -135z m1536 -1649 c3 -5 -1 -11 -9 -15 -9 -3 -15 0 -15
9 0 16 16 20 24 6z m-1514 -61 c0 -5 -7 -10 -15 -10 -8 0 -15 5 -15 10 0 6 7
10 15 10 8 0 15 -4 15 -10z m1640 -20 c21 -16 43 -30 49 -30 6 0 11 -7 11 -15
0 -7 6 -18 14 -22 8 -4 24 -28 36 -53 12 -25 26 -53 31 -62 12 -23 12 -138 0
-138 -11 0 -21 36 -21 81 0 20 -7 42 -15 49 -8 7 -15 23 -15 36 0 13 -8 32
-17 42 -10 10 -29 31 -43 48 -14 17 -40 39 -58 49 -31 19 -43 45 -21 45 6 0
28 -13 49 -30z m-1409 -103 c-1 -12 -15 -9 -19 4 -3 6 1 10 8 8 6 -3 11 -8 11
-12z m97 -34 c2 -8 -5 -13 -17 -13 -21 0 -35 13 -24 24 10 10 36 3 41 -11z
m66 -19 c9 -3 16 -10 16 -16 0 -14 -43 -5 -48 10 -4 13 7 15 32 6z m126 -49
c10 -12 10 -15 -3 -15 -23 0 -47 11 -47 21 0 15 37 10 50 -6z m1360 -20 c7 -8
18 -15 25 -15 16 0 73 -30 93 -47 7 -7 20 -13 28 -13 8 0 14 -4 14 -9 0 -5 10
-13 22 -17 12 -3 26 -10 32 -15 50 -42 61 -49 73 -49 7 0 13 -5 13 -10 0 -6 8
-14 18 -17 20 -8 36 -21 60 -45 9 -10 20 -18 24 -18 28 0 78 -87 78 -134 l-1
-31 -37 41 c-20 22 -57 56 -82 75 -25 18 -49 39 -55 45 -5 7 -28 24 -50 38
-22 14 -51 34 -65 45 -42 32 -168 111 -178 111 -10 0 -52 55 -52 70 0 15 26
12 40 -5z m-713 -61 c-7 -8 -97 -7 -105 1 -3 3 21 5 53 5 32 0 56 -3 52 -6z
m153 -24 c0 -5 -9 -10 -19 -10 -11 0 -23 5 -26 10 -4 6 5 10 19 10 14 0 26 -4
26 -10z m1180 -350 c5 0 10 -5 10 -11 0 -10 24 -38 90 -108 25 -25 77 -93 110
-141 8 -12 23 -31 33 -42 9 -12 17 -27 17 -35 0 -7 4 -13 9 -13 4 0 19 -22 32
-50 13 -27 27 -50 31 -50 5 0 8 -7 8 -15 0 -9 13 -40 29 -69 15 -30 31 -65 35
-80 3 -14 11 -26 16 -26 6 0 10 -18 10 -40 0 -45 -1 -46 -36 -23 -18 12 -22
18 -12 24 9 6 9 12 -4 26 -8 10 -37 62 -62 115 -26 54 -51 100 -57 103 -5 4
-18 23 -29 43 -10 20 -31 51 -46 67 -14 17 -36 46 -49 65 -12 19 -32 44 -44
54 -11 11 -21 25 -21 32 0 7 -19 34 -42 59 -103 111 -123 141 -119 185 1 9 16
-1 41 -27 21 -24 44 -43 50 -43z m-110 -117 c0 -13 -4 -23 -10 -23 -5 0 -10
17 -10 38 0 27 3 33 10 22 5 -8 10 -25 10 -37z m-100 -280 c0 -21 -3 -24 -9
-14 -5 8 -7 20 -4 28 8 21 13 15 13 -14z m40 -100 c0 -10 -5 -25 -10 -33 -7
-11 -10 -7 -10 18 0 17 5 32 10 32 6 0 10 -8 10 -17z m30 -130 c0 -13 -4 -23
-9 -23 -17 0 -23 20 -16 48 5 20 8 23 16 11 5 -7 9 -24 9 -36z m-757 7 c7 0 4
-5 -5 -11 -10 -5 -30 -6 -45 -3 -25 7 -25 8 -8 15 11 4 26 6 33 3 8 -2 19 -4
25 -4z m205 -7 c-10 -2 -26 -2 -35 0 -10 3 -2 5 17 5 19 0 27 -2 18 -5z m-885
-34 c-4 -4 -21 -5 -38 -1 -30 6 -30 6 -5 12 29 8 55 1 43 -11z m371 12 c3 -5
-1 -11 -9 -15 -15 -6 -29 7 -18 18 9 9 21 8 27 -3z m593 -17 c-9 -9 -28 6 -21
18 4 6 10 6 17 -1 6 -6 8 -13 4 -17z m739 -71 c1 -38 -1 -52 -8 -45 -11 11
-19 91 -11 105 10 17 18 -6 19 -60z m-1556 42 c7 -9 10 -18 6 -22 -3 -3 -6 -1
-6 6 0 6 -10 16 -22 21 -16 6 -18 9 -7 9 9 1 22 -6 29 -14z m161 -28 c-8 -8
-11 -5 -11 9 0 27 14 41 18 19 2 -9 -1 -22 -7 -28z m1159 -23 c0 -52 -10 -68
-27 -42 -7 13 -6 59 3 91 10 34 24 5 24 -49z m414 24 c-11 -17 -24 -6 -24 19
0 26 1 26 14 8 8 -11 12 -23 10 -27z m-854 13 c0 -22 26 -31 89 -31 67 0 42
-11 -37 -16 l-71 -4 2 35 c2 36 17 50 17 16z m-602 -171 c3 -172 -3 -199 -36
-167 -15 15 -17 38 -17 168 0 122 3 151 15 159 8 5 20 8 25 7 6 -2 11 -69 13
-167z m242 163 c4 -256 1 -348 -10 -351 -6 -2 -23 2 -37 9 -19 10 -28 10 -43
1 -11 -7 -25 -12 -32 -12 -34 1 -88 77 -88 124 0 31 26 76 58 100 20 16 30 17
53 9 15 -6 30 -8 33 -5 3 3 6 31 6 62 0 31 3 60 7 63 9 9 53 9 53 0z m260 -11
c14 -11 19 -23 15 -34 -9 -22 -44 -33 -58 -19 -20 20 -65 13 -72 -10 -5 -16 0
-27 21 -45 16 -13 34 -24 39 -24 20 -1 62 -46 72 -75 32 -98 -88 -173 -183
-114 -45 28 -48 69 -5 69 16 0 34 -7 41 -15 20 -24 69 -19 79 8 15 40 -3 63
-76 96 -11 5 -33 26 -48 45 -31 41 -28 61 17 105 27 27 39 31 84 31 35 0 59
-6 74 -18z m878 -59 c3 -86 13 -91 60 -28 23 32 40 45 57 45 38 0 37 -14 -6
-74 -41 -57 -41 -57 -25 -91 9 -19 21 -37 26 -40 13 -8 13 -42 0 -50 -6 -4
-31 15 -55 41 -47 52 -52 50 -57 -16 -3 -30 -7 -35 -30 -38 l-28 -3 0 159 c0
87 3 162 7 166 4 4 16 6 28 4 18 -3 20 -11 23 -75z m-3084 52 c40 -17 40 -18
26 -46 -11 -20 -45 -26 -55 -9 -9 15 -51 12 -65 -5 -15 -18 1 -65 22 -65 6 0
31 -9 54 -20 73 -36 89 -115 34 -170 -29 -29 -126 -29 -164 1 -26 20 -26 22
-10 40 11 12 21 16 28 10 36 -28 116 -19 116 14 0 20 -40 55 -71 62 -32 6 -75
44 -84 74 -11 32 22 94 58 112 41 20 66 21 111 2z m1284 -7 c9 -9 5 -19 -19
-44 l-31 -32 26 -17 c33 -22 33 -43 1 -55 -24 -9 -25 -13 -25 -95 0 -70 -3
-87 -16 -92 -37 -14 -49 10 -49 95 0 67 -3 84 -19 95 -17 13 -17 14 7 43 13
16 28 44 31 61 11 47 64 71 94 41z m1376 2 c17 0 18 -2 6 -10 -17 -11 -70 -13
-95 -4 -27 11 4 26 39 19 16 -3 38 -5 50 -5z m281 1 c7 -12 -12 -24 -25 -16
-11 7 -4 25 10 25 5 0 11 -4 15 -9z m-2340 -11 c13 -20 -6 -50 -31 -50 -26 0
-40 20 -30 45 6 17 51 20 61 5z m775 -10 c0 -27 -27 -37 -47 -17 -20 19 -9 37
23 37 17 0 24 -5 24 -20z m416 -28 c-12 -11 -18 7 -10 30 l8 23 4 -23 c2 -13
1 -26 -2 -30z m48 32 c9 -22 -3 -32 -14 -14 -12 19 -12 30 -1 30 5 0 12 -7 15
-16z m-1114 -15 c19 -1 15 -3 -14 -10 -44 -11 -49 -9 -40 15 5 12 10 14 17 7
6 -6 22 -11 37 -12z m400 -4 c0 -8 -24 -12 -72 -13 -83 -2 -119 5 -97 19 21
13 169 8 169 -6z m470 -1 c0 -9 -7 -14 -17 -12 -25 5 -28 28 -4 28 12 0 21 -6
21 -16z m-764 -3 c-3 -5 -15 -7 -26 -4 -28 7 -25 13 6 13 14 0 23 -4 20 -9z
m1662 -3 c7 -7 12 -19 12 -27 0 -11 -5 -9 -20 7 -11 12 -20 24 -20 27 0 9 16
5 28 -7z m923 -9 c16 -32 -8 -53 -44 -40 -60 23 -76 -19 -20 -49 18 -10 40
-23 48 -30 24 -20 18 -71 -10 -103 -21 -22 -34 -27 -74 -27 -35 0 -53 5 -66
20 -23 26 -13 54 17 45 13 -4 30 -9 39 -11 43 -12 64 48 22 63 -38 13 -63 46
-63 81 0 53 23 72 86 72 44 0 55 -4 65 -21z m-1050 -24 c30 7 61 -5 97 -38 18
-16 22 -31 22 -75 0 -46 -4 -58 -29 -83 -24 -23 -38 -29 -75 -29 l-45 0 -3
-42 c-3 -36 -7 -44 -27 -46 -13 -2 -27 0 -31 5 -5 4 -10 75 -11 156 -3 161 1
174 49 156 14 -6 38 -7 53 -4z m576 -7 c21 -20 23 -30 23 -118 l0 -97 -84 -1
c-89 -1 -105 6 -120 55 -10 32 56 93 100 93 43 0 53 18 24 42 -22 18 -23 18
-56 -3 -54 -33 -88 -7 -41 32 33 28 123 26 154 -3z m-251 -32 c58 -58 42 -96
-42 -96 -61 0 -75 -13 -46 -43 19 -18 25 -19 59 -9 43 13 48 11 34 -16 -29
-55 -124 -45 -162 17 -35 57 -14 152 38 173 44 17 85 8 119 -26z m-2399 -15
c27 -40 29 -74 8 -125 -19 -44 -84 -82 -114 -66 -34 17 -41 11 -41 -34 0 -47
-17 -70 -44 -60 -14 5 -16 27 -16 159 0 94 4 155 10 157 6 2 47 3 92 3 l82 0
23 -34z m778 25 l30 -1 3 -122 3 -122 -35 -34 c-58 -58 -167 -60 -174 -4 -4
31 11 35 53 13 40 -21 95 6 95 46 0 19 -15 24 -25 8 -13 -21 -66 -10 -96 19
-25 26 -29 37 -29 89 0 63 8 76 65 106 19 10 39 14 55 10 14 -4 39 -8 55 -8z
m300 -106 l0 -115 -27 -3 -28 -3 0 114 c0 62 3 117 7 121 4 4 16 6 28 4 19 -3
20 -10 20 -118z m216 91 c21 -22 29 -39 29 -65 0 -40 -8 -44 -94 -48 -57 -3
-68 -19 -30 -44 25 -17 28 -17 56 -1 55 32 86 13 47 -29 -18 -19 -32 -24 -73
-24 -43 0 -55 5 -83 32 -29 28 -33 38 -33 85 0 44 5 58 31 88 27 30 37 35 76
35 36 0 50 -6 74 -29z m-1083 -9 c2 -14 -3 -24 -15 -28 -60 -18 -68 -30 -73
-101 -5 -65 -6 -68 -30 -68 -25 0 -25 1 -28 99 -3 110 1 118 55 109 22 -4 33
-2 33 6 0 8 11 11 28 9 19 -2 28 -9 30 -26z m227 16 c11 0 32 3 47 7 22 6 33
1 58 -24 30 -30 31 -32 28 -113 l-3 -83 -30 0 -30 0 -5 74 c-6 85 -24 109 -59
77 -16 -14 -21 -33 -23 -85 -3 -63 -4 -66 -28 -66 -25 0 -25 1 -30 99 -5 106
4 135 39 120 9 -4 25 -7 36 -6z m-135 -102 c3 -54 2 -102 -1 -108 -4 -5 -17
-8 -30 -6 -23 3 -24 7 -27 97 -3 96 6 125 37 119 13 -3 17 -22 21 -102z m1440
39 c0 -9 -6 -12 -15 -9 -8 4 -15 10 -15 15 0 5 7 9 15 9 8 0 15 -7 15 -15z
m770 -271 c0 -13 -4 -24 -10 -24 -5 0 -10 14 -10 31 0 17 4 28 10 24 6 -3 10
-17 10 -31z m30 -104 c0 -16 -4 -30 -10 -30 -5 0 -10 14 -10 30 0 17 5 30 10
30 6 0 10 -13 10 -30z m30 -126 c0 -27 -4 -43 -10 -39 -5 3 -10 24 -10 46 0
21 5 39 10 39 6 0 10 -21 10 -46z"/>
<path d="M4820 5850 c0 -14 45 -30 78 -29 24 1 22 3 -10 12 -21 6 -38 14 -38
19 0 4 -7 8 -15 8 -8 0 -15 -5 -15 -10z"/>
<path d="M4309 4816 c-3 -3 -50 -10 -105 -16 -54 -6 -103 -16 -109 -21 -5 -5
-17 -9 -27 -9 -33 0 -151 -71 -199 -119 -56 -57 -94 -108 -104 -141 -4 -14
-11 -27 -16 -30 -9 -6 -31 -128 -31 -170 0 -42 21 -168 31 -187 5 -10 20 -42
32 -70 13 -29 27 -53 31 -53 5 0 8 -7 8 -15 0 -17 133 -152 163 -166 12 -5 29
-13 37 -18 51 -29 81 -41 102 -41 13 0 30 -6 37 -12 8 -9 55 -13 164 -12 123
0 158 3 182 17 17 9 38 17 47 17 15 0 135 57 148 70 3 3 24 18 48 34 35 24 83
72 121 122 7 9 40 69 64 119 9 18 28 134 29 180 2 51 -16 173 -28 199 -8 16
-14 40 -14 53 0 13 -7 26 -15 29 -8 4 -15 17 -15 29 0 13 -4 27 -10 30 -5 3
-10 18 -10 32 0 22 -2 24 -15 13 -13 -10 -19 -10 -33 3 -31 27 -129 76 -169
83 -21 3 -42 10 -48 14 -9 7 -91 19 -245 37 -25 3 -48 2 -51 -1z m251 -67 c19
-6 51 -15 70 -19 93 -22 197 -89 221 -144 5 -11 21 -41 35 -66 25 -43 27 -52
28 -196 1 -153 -2 -167 -45 -244 -5 -8 -13 -25 -19 -37 -23 -54 -218 -213
-260 -213 -5 0 -24 -6 -42 -14 -93 -40 -251 -57 -333 -35 -22 6 -56 14 -75 18
-19 4 -44 12 -55 19 -11 6 -27 13 -35 17 -63 25 -180 137 -211 202 -11 24 -25
45 -30 49 -5 3 -9 13 -9 23 0 10 -7 32 -16 49 -22 45 -22 239 0 283 9 18 16
40 16 49 0 10 7 23 15 30 8 7 15 18 15 25 0 17 94 113 123 125 12 6 29 14 37
19 26 16 88 41 102 41 7 0 31 7 53 15 49 17 362 21 415 4z"/>
<path d="M4337 4317 c-39 -33 -38 -86 3 -110 36 -22 62 -16 90 20 58 74 -22
151 -93 90z"/>
<path d="M5532 4264 c-16 -11 -22 -25 -22 -55 0 -35 4 -41 33 -55 39 -19 78
-8 102 30 13 19 14 29 6 45 -28 52 -75 66 -119 35z"/>
<path d="M5400 4106 c0 -9 40 -13 46 -5 3 5 -6 9 -20 9 -14 0 -26 -2 -26 -4z"/>
<path d="M2890 3825 c-20 -24 -2 -35 55 -35 30 0 56 -4 59 -8 2 -4 -9 -23 -25
-41 -25 -29 -29 -42 -29 -90 0 -46 5 -60 24 -79 32 -30 76 -52 92 -45 15 6 19
33 5 33 -5 0 -23 12 -40 27 -42 38 -43 86 -1 132 l31 33 33 -44 c18 -23 36
-53 40 -65 10 -32 46 -31 46 2 0 49 -40 108 -119 175 -30 25 -151 29 -171 5z"/>
<path d="M4873 570 c-30 -48 -5 -108 41 -96 26 6 27 9 24 59 -3 47 -5 52 -28
55 -16 2 -29 -4 -37 -18z"/>
<path d="M5397 613 c-4 -3 -7 -30 -7 -59 0 -59 16 -73 64 -55 22 9 26 17 26
50 0 30 -5 42 -25 55 -26 17 -47 20 -58 9z"/>
<path d="M5900 540 c-24 -21 -22 -46 5 -56 21 -9 55 24 55 53 0 29 -28 31 -60
3z"/>
<path d="M5649 601 c-31 -25 -15 -44 32 -39 39 3 45 23 13 45 -19 12 -24 11
-45 -6z"/>
<path d="M3222 584 c-44 -31 -19 -114 35 -114 23 0 53 39 53 70 0 22 -33 60
-53 60 -7 0 -23 -7 -35 -16z"/>
<path d="M4021 576 c-7 -8 -11 -34 -9 -58 3 -43 3 -43 44 -46 40 -3 41 -2 47
33 9 54 -6 85 -42 85 -15 0 -34 -6 -40 -14z"/>
<path d="M4541 594 c-33 -23 -25 -35 21 -32 48 3 59 20 24 36 -18 8 -28 7 -45
-4z"/>
</g>
</svg>
